<?xml version="1.0" encoding="UTF-8" standalone="no"?>
<!-- Copyright 2017 mathsisfun.com -->

<svg
   xmlns:dc="http://purl.org/dc/elements/1.1/"
   xmlns:cc="http://creativecommons.org/ns#"
   xmlns:rdf="http://www.w3.org/1999/02/22-rdf-syntax-ns#"
   xmlns:svg="http://www.w3.org/2000/svg"
   xmlns="http://www.w3.org/2000/svg"
   xmlns:sodipodi="http://sodipodi.sourceforge.net/DTD/sodipodi-0.dtd"
   xmlns:inkscape="http://www.inkscape.org/namespaces/inkscape"
   width="256.6"
   height="190.6"
   version="1.1"
   style="font-size:21.3px;stroke-width:1px"
   id="svg127"
   sodipodi:docname="cartesian-quadrants.svg"
   inkscape:version="0.92.2 (5c3e80d, 2017-08-06)">
  <metadata
     id="metadata131">
    <rdf:RDF>
      <cc:Work
         rdf:about="">
        <dc:format>image/svg+xml</dc:format>
        <dc:type
           rdf:resource="http://purl.org/dc/dcmitype/StillImage" />
      </cc:Work>
    </rdf:RDF>
  </metadata>
  <sodipodi:namedview
     pagecolor="#ffffff"
     bordercolor="#666666"
     borderopacity="1"
     objecttolerance="10"
     gridtolerance="10"
     guidetolerance="10"
     inkscape:pageopacity="0"
     inkscape:pageshadow="2"
     inkscape:window-width="640"
     inkscape:window-height="480"
     id="namedview129"
     showgrid="false"
     inkscape:current-layer="svg127" />
  <defs
     id="defs5">
    <marker
       id="id1"
       style="overflow:visible"
       orient="auto">
      <path
         transform="matrix(-0.8,0,0,-0.8,-10,0)"
         style="stroke:black;stroke-width:1pt"
         d="M 0,0 5,-5 -12.5,0 5,5 Z"
         id="path2" />
    </marker>
  </defs>
  <g
     transform="matrix(0.147698,0,0,0.147698,39.2568,-12.6428)"
     id="g31">
    <path
       style="fill:none;stroke:black;stroke-width:3"
       d="m 603.6,683.7 v 73.1"
       id="path7" />
    <path
       style="fill:none;stroke:#0000ff"
       d="m 679.7,683.7 v 73.1"
       id="path9" />
    <path
       style="fill:none;stroke:#0000ff"
       d="m 755.9,683.7 v 73.1"
       id="path11" />
    <path
       style="fill:none;stroke:#0000ff"
       d="m 832,683.7 v 73.1"
       id="path13" />
    <path
       style="fill:none;stroke:#0000ff"
       d="m 908.2,683.7 v 73.1"
       id="path15" />
    <path
       style="fill:none;stroke:#0000ff"
       d="m 984.3,683.7 v 73.1"
       id="path17" />
    <path
       style="fill:none;stroke:#0000ff"
       d="m 1060.5,683.7 v 73.1"
       id="path19" />
    <path
       style="fill:none;stroke:#0000ff"
       d="m 1136.6,683.7 v 73.1"
       id="path21" />
    <path
       style="fill:none;stroke:#0000ff"
       d="m 1212.8,683.7 v 73.1"
       id="path23" />
    <path
       style="fill:none;stroke:#0000ff"
       d="m 1288.9,683.7 v 73.1"
       id="path25" />
    <path
       style="fill:none;stroke:#0000ff"
       d="m 1365.1,683.7 v 73.1"
       id="path27" />
    <path
       style="marker-end:url(#id1);fill:#0000ff;fill-opacity:0.75;stroke:#0000ff;stroke-width:3.8"
       d="m 601.4,724.8 h 862.7"
       id="path29" />
  </g>
  <g
     transform="matrix(-0.147698,0,0,0.147698,217.334,-12.7286)"
     id="g57">
    <path
       style="fill:none;stroke:black;stroke-width:3"
       d="m 603.6,683.7 v 73.1"
       id="path33" />
    <path
       style="fill:none;stroke:#0000ff"
       d="m 679.7,683.7 v 73.1"
       id="path35" />
    <path
       style="fill:none;stroke:#0000ff"
       d="m 755.9,683.7 v 73.1"
       id="path37" />
    <path
       style="fill:none;stroke:#0000ff"
       d="m 832,683.7 v 73.1"
       id="path39" />
    <path
       style="fill:none;stroke:#0000ff"
       d="m 908.2,683.7 v 73.1"
       id="path41" />
    <path
       style="fill:none;stroke:#0000ff"
       d="m 984.3,683.7 v 73.1"
       id="path43" />
    <path
       style="fill:none;stroke:#0000ff"
       d="m 1060.5,683.7 v 73.1"
       id="path45" />
    <path
       style="fill:none;stroke:#0000ff"
       d="m 1136.6,683.7 v 73.1"
       id="path47" />
    <path
       style="fill:none;stroke:#0000ff"
       d="m 1212.8,683.7 v 73.1"
       id="path49" />
    <path
       style="fill:none;stroke:#0000ff"
       d="m 1288.9,683.7 v 73.1"
       id="path51" />
    <path
       style="fill:none;stroke:#0000ff"
       d="m 1365.1,683.7 v 73.1"
       id="path53" />
    <path
       style="marker-end:url(#id1);fill:#0000ff;fill-opacity:0.75;stroke:#0000ff;stroke-width:3.8"
       d="m 601.4,724.8 h 862.7"
       id="path55" />
  </g>
  <g
     transform="matrix(0.147698,0,0,0.147698,-75.8319,30.9778)"
     id="g77">
    <path
       style="fill:none;stroke:#0000ff"
       d="m 1423.3,429 h -73.1"
       id="path59" />
    <path
       style="fill:none;stroke:#0000ff"
       d="m 1423.3,505.1 h -73.1"
       id="path61" />
    <path
       style="fill:none;stroke:#0000ff"
       d="m 1423.3,581.3 h -73.1"
       id="path63" />
    <path
       style="fill:none;stroke:#0000ff"
       d="m 1423.3,657.4 h -73.1"
       id="path65" />
    <path
       style="fill:none;stroke:#0000ff"
       d="m 1423.3,733.6 h -73.1"
       id="path67" />
    <path
       style="fill:none;stroke:#0000ff"
       d="m 1423.3,809.7 h -73.1"
       id="path69" />
    <path
       style="fill:none;stroke:#0000ff"
       d="m 1423.3,885.9 h -73.1"
       id="path71" />
    <path
       style="fill:none;stroke:#0000ff"
       d="m 1423.3,962 h -73.1"
       id="path73" />
    <path
       style="marker-end:url(#id1);fill:#0000ff;fill-opacity:0.75;stroke:#0000ff;stroke-width:3.8"
       d="M 1382.2,429.4 V 1061"
       id="path75" />
  </g>
  <g
     transform="matrix(0.147698,0,0,-0.147698,-75.9562,157.797)"
     id="g97">
    <path
       style="fill:none;stroke:#0000ff"
       d="m 1423.3,429 h -73.1"
       id="path79" />
    <path
       style="fill:none;stroke:#0000ff"
       d="m 1423.3,505.1 h -73.1"
       id="path81" />
    <path
       style="fill:none;stroke:#0000ff"
       d="m 1423.3,581.3 h -73.1"
       id="path83" />
    <path
       style="fill:none;stroke:#0000ff"
       d="m 1423.3,657.4 h -73.1"
       id="path85" />
    <path
       style="fill:none;stroke:#0000ff"
       d="m 1423.3,733.6 h -73.1"
       id="path87" />
    <path
       style="fill:none;stroke:#0000ff"
       d="m 1423.3,809.7 h -73.1"
       id="path89" />
    <path
       style="fill:none;stroke:#0000ff"
       d="m 1423.3,885.9 h -73.1"
       id="path91" />
    <path
       style="fill:none;stroke:#0000ff"
       d="m 1423.3,962 h -73.1"
       id="path93" />
    <path
       style="marker-end:url(#id1);fill:#0000ff;fill-opacity:0.75;stroke:#0000ff;stroke-width:3.8"
       d="M 1382.2,429.4 V 1061"
       id="path95" />
  </g>
  <text
     x="108.9"
     y="11.2"
     style="font-family:Arial;overflow:visible;fill:#0000ff;stroke-width:0.43px"
     id="text99">y</text>
  <text
     x="102.2"
     y="186.1"
     style="font-family:Arial;overflow:visible;fill:#0000ff;stroke-width:0.43px"
     id="text101">-y</text>
  <text
     x="240.9"
     y="113.1"
     style="font-family:Arial;overflow:visible;fill:#0000ff;stroke-width:0.43px"
     id="text103">x</text>
  <text
     x="5.7"
     y="114.4"
     style="font-family:Arial;overflow:visible;fill:#0000ff;stroke-width:0.43px"
     id="text105">-x</text>
  <text
     x="179.5"
     y="50.2"
     style="font-style:normal;font-variant:normal;font-weight:normal;font-stretch:normal;font-size:24px;font-family:Arial;-inkscape-font-specification:'Arial, Normal';font-variant-ligatures:normal;font-variant-caps:normal;font-variant-numeric:normal;font-feature-settings:normal;text-align:start;writing-mode:lr-tb;text-anchor:start;overflow:visible;fill:#fb8b00;stroke-width:0.43px"
     id="text107">I</text>
  <path
     style="overflow:visible;fill:#b3defd;stroke-width:1.45"
     d="M 161.9,32.4 C 147,26.7 130.3,24.8 114.6,28.5 98.2,31.6 83.3,40.7 72.2,53 c 4,-4.4 2.2,-2.5 -0.5,0.9 -9.9,13.4 -15.7,30.2 -14.1,47 0.9,13.4 4.2,27.5 14,37.3 16.4,18.9 42,29 66.8,26.7 16.7,-1.1 32.4,-9.7 43.8,-21.6 -3.6,4.1 4.6,-5.6 5.4,-7.8 8.7,-13.4 11.6,-30.3 7.3,-45.8 0.4,-5.1 -7.5,-12.2 -1,-15 4.2,-2.4 4,9.1 5.9,12 4.8,16.5 1.9,34.8 -7.3,49.2 -13.2,22 -38.8,36.1 -64.5,34.5 C 100.7,169.9 73.9,154.8 59.7,131.4 52.8,116.9 51,100.1 53.3,84.2 57.1,65.6 67.9,48.4 83.5,37.4 97.9,26.2 116.6,21.3 134.8,21.2 c 10.3,0.9 20.8,2.3 30.4,6.3 -1.1,1.5 -2.3,3.6 -3.3,4.8 z"
     id="path109" />
  <path
     style="overflow:visible;fill:#b3defd;stroke-width:1.45"
     d="m 183.2,101.8 c 0.7,-1.4 1.5,-2.8 2.1,-4.2 3.8,-8.8 5.1,-18.4 6.3,-27.8 -0.1,-0.7 0.9,-0.7 1.4,-1 1.2,-0.5 2.5,-1.1 3.7,-1.6 -0.8,6 -1.6,12 -2.9,18 -1.2,5.2 -2.8,10.3 -5.1,15 -0.4,0.5 -1.3,0.5 -1.9,0.7 -1.2,0.3 -2.5,0.6 -3.6,1 z"
     id="path111" />
  <path
     style="overflow:visible;fill:#b3defd;stroke-width:1.45"
     d="m 198.1,67.1 c -0.5,3.2 0.6,6.4 2.1,9.2 2.5,5 5.6,9.8 9.8,13.6 0.7,1 2.9,1.9 2.7,2.9 -1.1,1.3 -2.2,2.7 -3.2,4 -3.2,-2.6 -6.2,-5.5 -8.6,-8.8 -2.8,-4 -5.3,-8.3 -7,-12.8 -0.6,-1.9 -1,-3.9 -0.8,-5.8 1.7,-0.8 3.4,-1.5 5,-2.3 z"
     id="path113" />
  <path
     style="overflow:visible;fill:white;stroke-width:1.23"
     d="m 92.7,45.4 a 15,15.7 0 1 1 -30.1,0 15,15.7 0 1 1 30.1,0 z"
     id="path115" />
  <text
     x="69.6"
     y="50.2"
     style="font-style:normal;font-variant:normal;font-weight:normal;font-stretch:normal;font-size:24px;font-family:Arial;-inkscape-font-specification:'Arial, Normal';font-variant-ligatures:normal;font-variant-caps:normal;font-variant-numeric:normal;font-feature-settings:normal;text-align:start;writing-mode:lr-tb;text-anchor:start;overflow:visible;fill:#ff6600;stroke-width:0.43px"
     id="text117">II</text>
  <path
     style="overflow:visible;fill:white;stroke-width:1.31"
     d="m 86.5,138 a 17.3,15.7 0 1 1 -34.6,0 17.3,15.7 0 1 1 34.6,0 z"
     id="path119" />
  <path
     style="overflow:visible;fill:white;stroke-width:1.3"
     d="m 202.2,139.8 a 16.5,16 0 1 1 -33,0 16.5,16 0 1 1 33,0 z"
     id="path121" />
  <text
     x="56.2"
     y="148.861"
     style="font-style:normal;font-variant:normal;font-weight:normal;font-stretch:normal;font-size:24px;font-family:Arial;-inkscape-font-specification:'Arial, Normal';font-variant-ligatures:normal;font-variant-caps:normal;font-variant-numeric:normal;font-feature-settings:normal;text-align:start;writing-mode:lr-tb;text-anchor:start;overflow:visible;fill:#ff6600;stroke-width:0.43px"
     id="text123">III</text>
  <text
     x="174.513"
     y="148.861"
     style="font-style:normal;font-variant:normal;font-weight:normal;font-stretch:normal;font-size:24px;font-family:Arial;-inkscape-font-specification:'Arial, Normal';font-variant-ligatures:normal;font-variant-caps:normal;font-variant-numeric:normal;font-feature-settings:normal;text-align:start;writing-mode:lr-tb;text-anchor:start;overflow:visible;fill:#ff6600;stroke-width:0.43px"
     id="text125">IV</text>
</svg>
